<svg width="1338" height="1024" viewBox="0 0 1338 1024" fill="none" xmlns="http://www.w3.org/2000/svg">
<path opacity="0.6" d="M199.713 189.49L189.713 206.811L162 190.811L172 173.49M175.856 198.811L190.856 172.83M190.856 172.83L183.062 168.33C181.914 167.667 181.076 166.575 180.733 165.294C180.389 164.013 180.569 162.648 181.232 161.5C181.895 160.352 182.987 159.514 184.268 159.17C185.549 158.827 186.914 159.007 188.062 159.67C194.124 163.17 190.856 172.83 190.856 172.83ZM190.856 172.83L198.651 177.33C199.799 177.993 201.164 178.173 202.445 177.83C203.726 177.486 204.818 176.648 205.481 175.5C206.144 174.352 206.323 172.987 205.98 171.706C205.637 170.425 204.799 169.333 203.651 168.67C197.588 165.17 190.856 172.83 190.856 172.83ZM199.713 292.49L209.713 309.811L182 325.811L172 308.49M195.856 317.811L180.856 291.83M180.856 291.83L173.062 296.33C171.914 296.993 170.549 297.173 169.268 296.83C167.987 296.486 166.895 295.648 166.232 294.5C165.569 293.352 165.389 291.987 165.733 290.706C166.076 289.425 166.914 288.333 168.062 287.67C174.124 284.17 180.856 291.83 180.856 291.83ZM180.856 291.83L188.651 287.33C189.799 286.667 190.637 285.575 190.98 284.294C191.323 283.013 191.144 281.648 190.481 280.5C189.818 279.352 188.726 278.514 187.445 278.17C186.164 277.827 184.799 278.007 183.651 278.67C177.588 282.17 180.856 291.83 180.856 291.83ZM199.713 427.49L189.713 444.811L162 428.811L172 411.49M175.856 436.811L190.856 410.83M190.856 410.83L183.062 406.33C181.914 405.667 181.076 404.575 180.733 403.294C180.389 402.013 180.569 400.648 181.232 399.5C181.895 398.352 182.987 397.514 184.268 397.17C185.549 396.827 186.914 397.007 188.062 397.67C194.124 401.17 190.856 410.83 190.856 410.83ZM190.856 410.83L198.651 415.33C199.799 415.993 201.164 416.173 202.445 415.83C203.726 415.486 204.818 414.648 205.481 413.5C206.144 412.352 206.323 410.987 205.98 409.706C205.637 408.425 204.799 407.333 203.651 406.67C197.588 403.17 190.856 410.83 190.856 410.83ZM199.713 530.49L209.713 547.811L182 563.811L172 546.49M195.856 555.811L180.856 529.83M180.856 529.83L173.062 534.33C171.914 534.993 170.549 535.173 169.268 534.83C167.987 534.486 166.895 533.648 166.232 532.5C165.569 531.352 165.389 529.987 165.733 528.706C166.076 527.425 166.914 526.333 168.062 525.67C174.124 522.17 180.856 529.83 180.856 529.83ZM180.856 529.83L188.651 525.33C189.799 524.667 190.637 523.575 190.98 522.294C191.323 521.013 191.144 519.648 190.481 518.5C189.818 517.352 188.726 516.514 187.445 516.17C186.164 515.827 184.799 516.007 183.651 516.67C177.588 520.17 180.856 529.83 180.856 529.83ZM199.713 665.49L189.713 682.811L162 666.811L172 649.49M175.856 674.811L190.856 648.83M190.856 648.83L183.062 644.33C181.914 643.667 181.076 642.575 180.733 641.294C180.389 640.013 180.569 638.648 181.232 637.5C181.895 636.352 182.987 635.514 184.268 635.17C185.549 634.827 186.914 635.007 188.062 635.67C194.124 639.17 190.856 648.83 190.856 648.83ZM190.856 648.83L198.651 653.33C199.799 653.993 201.164 654.173 202.445 653.83C203.726 653.486 204.818 652.648 205.481 651.5C206.144 650.352 206.323 648.987 205.98 647.706C205.637 646.425 204.799 645.333 203.651 644.67C197.588 641.17 190.856 648.83 190.856 648.83ZM199.713 768.49L209.713 785.811L182 801.811L172 784.49M195.856 793.811L180.856 767.83M180.856 767.83L173.062 772.33C171.914 772.993 170.549 773.173 169.268 772.83C167.987 772.486 166.895 771.648 166.232 770.5C165.569 769.352 165.389 767.987 165.733 766.706C166.076 765.425 166.914 764.333 168.062 763.67C174.124 760.17 180.856 767.83 180.856 767.83ZM180.856 767.83L188.651 763.33C189.799 762.667 190.637 761.575 190.98 760.294C191.323 759.013 191.144 757.648 190.481 756.5C189.818 755.352 188.726 754.514 187.445 754.17C186.164 753.827 184.799 754.007 183.651 754.67C177.588 758.17 180.856 767.83 180.856 767.83ZM199.713 903.49L189.713 920.811L162 904.811L172 887.49M175.856 912.811L190.856 886.83M190.856 886.83L183.062 882.33C181.914 881.667 181.076 880.575 180.733 879.294C180.389 878.013 180.569 876.648 181.232 875.5C181.895 874.352 182.987 873.514 184.268 873.17C185.549 872.827 186.914 873.007 188.062 873.67C194.124 877.17 190.856 886.83 190.856 886.83ZM190.856 886.83L198.651 891.33C199.799 891.993 201.164 892.173 202.445 891.83C203.726 891.486 204.818 890.648 205.481 889.5C206.144 888.352 206.323 886.987 205.98 885.706C205.637 884.425 204.799 883.333 203.651 882.67C197.588 879.17 190.856 886.83 190.856 886.83ZM199.713 1006.49L209.713 1023.81L182 1039.81L172 1022.49M195.856 1031.81L180.856 1005.83M180.856 1005.83L173.062 1010.33C171.914 1010.99 170.549 1011.17 169.268 1010.83C167.987 1010.49 166.895 1009.65 166.232 1008.5C165.569 1007.35 165.389 1005.99 165.733 1004.71C166.076 1003.43 166.914 1002.33 168.062 1001.67C174.124 998.17 180.856 1005.83 180.856 1005.83ZM180.856 1005.83L188.651 1001.33C189.799 1000.67 190.637 999.575 190.98 998.294C191.323 997.013 191.144 995.648 190.481 994.5C189.818 993.352 188.726 992.514 187.445 992.17C186.164 991.827 184.799 992.007 183.651 992.67C177.588 996.17 180.856 1005.83 180.856 1005.83ZM199.713 54.4904L209.713 71.8109L182 87.8109L172 70.4904M195.856 79.8109L180.856 53.8301M180.856 53.8301L173.062 58.3301C171.914 58.9932 170.549 59.1729 169.268 58.8296C167.987 58.4864 166.895 57.6484 166.232 56.5C165.569 55.3516 165.389 53.9868 165.733 52.7059C166.076 51.425 166.914 50.3329 168.062 49.6699C174.124 46.1699 180.856 53.8301 180.856 53.8301ZM180.856 53.8301L188.651 49.3301C189.799 48.6671 190.637 47.575 190.98 46.2941C191.323 45.0132 191.144 43.6484 190.481 42.5C189.818 41.3516 188.726 40.5136 187.445 40.1704C186.164 39.8272 184.799 40.0068 183.651 40.6699C177.588 44.1699 180.856 53.8301 180.856 53.8301ZM360.713 133.49L350.713 150.811L323 134.811L333 117.49M336.856 142.811L351.856 116.83M351.856 116.83L344.062 112.33C342.914 111.667 342.076 110.575 341.733 109.294C341.389 108.013 341.569 106.648 342.232 105.5C342.895 104.352 343.987 103.514 345.268 103.17C346.549 102.827 347.914 103.007 349.062 103.67C355.124 107.17 351.856 116.83 351.856 116.83ZM351.856 116.83L359.651 121.33C360.799 121.993 362.164 122.173 363.445 121.83C364.726 121.486 365.818 120.648 366.481 119.5C367.144 118.352 367.323 116.987 366.98 115.706C366.637 114.425 365.799 113.333 364.651 112.67C358.588 109.17 351.856 116.83 351.856 116.83ZM360.713 236.49L370.713 253.811L343 269.811L333 252.49M356.856 261.811L341.856 235.83M341.856 235.83L334.062 240.33C332.914 240.993 331.549 241.173 330.268 240.83C328.987 240.486 327.895 239.648 327.232 238.5C326.569 237.352 326.389 235.987 326.733 234.706C327.076 233.425 327.914 232.333 329.062 231.67C335.124 228.17 341.856 235.83 341.856 235.83ZM341.856 235.83L349.651 231.33C350.799 230.667 351.637 229.575 351.98 228.294C352.323 227.013 352.144 225.648 351.481 224.5C350.818 223.352 349.726 222.514 348.445 222.17C347.164 221.827 345.799 222.007 344.651 222.67C338.588 226.17 341.856 235.83 341.856 235.83ZM360.713 371.49L350.713 388.811L323 372.811L333 355.49M336.856 380.811L351.856 354.83M351.856 354.83L344.062 350.33C342.914 349.667 342.076 348.575 341.733 347.294C341.389 346.013 341.569 344.648 342.232 343.5C342.895 342.352 343.987 341.514 345.268 341.17C346.549 340.827 347.914 341.007 349.062 341.67C355.124 345.17 351.856 354.83 351.856 354.83ZM351.856 354.83L359.651 359.33C360.799 359.993 362.164 360.173 363.445 359.83C364.726 359.486 365.818 358.648 366.481 357.5C367.144 356.352 367.323 354.987 366.98 353.706C366.637 352.425 365.799 351.333 364.651 350.67C358.588 347.17 351.856 354.83 351.856 354.83ZM360.713 474.49L370.713 491.811L343 507.811L333 490.49M356.856 499.811L341.856 473.83M341.856 473.83L334.062 478.33C332.914 478.993 331.549 479.173 330.268 478.83C328.987 478.486 327.895 477.648 327.232 476.5C326.569 475.352 326.389 473.987 326.733 472.706C327.076 471.425 327.914 470.333 329.062 469.67C335.124 466.17 341.856 473.83 341.856 473.83ZM341.856 473.83L349.651 469.33C350.799 468.667 351.637 467.575 351.98 466.294C352.323 465.013 352.144 463.648 351.481 462.5C350.818 461.352 349.726 460.514 348.445 460.17C347.164 459.827 345.799 460.007 344.651 460.67C338.588 464.17 341.856 473.83 341.856 473.83ZM360.713 609.49L350.713 626.811L323 610.811L333 593.49M336.856 618.811L351.856 592.83M351.856 592.83L344.062 588.33C342.914 587.667 342.076 586.575 341.733 585.294C341.389 584.013 341.569 582.648 342.232 581.5C342.895 580.352 343.987 579.514 345.268 579.17C346.549 578.827 347.914 579.007 349.062 579.67C355.124 583.17 351.856 592.83 351.856 592.83ZM351.856 592.83L359.651 597.33C360.799 597.993 362.164 598.173 363.445 597.83C364.726 597.486 365.818 596.648 366.481 595.5C367.144 594.352 367.323 592.987 366.98 591.706C366.637 590.425 365.799 589.333 364.651 588.67C358.588 585.17 351.856 592.83 351.856 592.83ZM360.713 712.49L370.713 729.811L343 745.811L333 728.49M356.856 737.811L341.856 711.83M341.856 711.83L334.062 716.33C332.914 716.993 331.549 717.173 330.268 716.83C328.987 716.486 327.895 715.648 327.232 714.5C326.569 713.352 326.389 711.987 326.733 710.706C327.076 709.425 327.914 708.333 329.062 707.67C335.124 704.17 341.856 711.83 341.856 711.83ZM341.856 711.83L349.651 707.33C350.799 706.667 351.637 705.575 351.98 704.294C352.323 703.013 352.144 701.648 351.481 700.5C350.818 699.352 349.726 698.514 348.445 698.17C347.164 697.827 345.799 698.007 344.651 698.67C338.588 702.17 341.856 711.83 341.856 711.83ZM360.713 847.49L350.713 864.811L323 848.811L333 831.49M336.856 856.811L351.856 830.83M351.856 830.83L344.062 826.33C342.914 825.667 342.076 824.575 341.733 823.294C341.389 822.013 341.569 820.648 342.232 819.5C342.895 818.352 343.987 817.514 345.268 817.17C346.549 816.827 347.914 817.007 349.062 817.67C355.124 821.17 351.856 830.83 351.856 830.83ZM351.856 830.83L359.651 835.33C360.799 835.993 362.164 836.173 363.445 835.83C364.726 835.486 365.818 834.648 366.481 833.5C367.144 832.352 367.323 830.987 366.98 829.706C366.637 828.425 365.799 827.333 364.651 826.67C358.588 823.17 351.856 830.83 351.856 830.83ZM360.713 950.49L370.713 967.811L343 983.811L333 966.49M356.856 975.811L341.856 949.83M341.856 949.83L334.062 954.33C332.914 954.993 331.549 955.173 330.268 954.83C328.987 954.486 327.895 953.648 327.232 952.5C326.569 951.352 326.389 949.987 326.733 948.706C327.076 947.425 327.914 946.333 329.062 945.67C335.124 942.17 341.856 949.83 341.856 949.83ZM341.856 949.83L349.651 945.33C350.799 944.667 351.637 943.575 351.98 942.294C352.323 941.013 352.144 939.648 351.481 938.5C350.818 937.352 349.726 936.514 348.445 936.17C347.164 935.827 345.799 936.007 344.651 936.67C338.588 940.17 341.856 949.83 341.856 949.83ZM360.713 -1.50961L370.713 15.8109L343 31.8109L333 14.4904M356.856 23.8109L341.856 -2.16986M341.856 -2.16986L334.062 2.33014C332.914 2.99318 331.549 3.17286 330.268 2.82964C328.987 2.48643 327.895 1.64843 327.232 0.500013C326.569 -0.648408 326.389 -2.01319 326.733 -3.29408C327.076 -4.57498 327.914 -5.66707 329.062 -6.33011C335.124 -9.83011 341.856 -2.16986 341.856 -2.16986ZM341.856 -2.16986L349.651 -6.66986C350.799 -7.3329 351.637 -8.42499 351.98 -9.70589C352.323 -10.9868 352.144 -12.3516 351.481 -13.5C350.818 -14.6484 349.726 -15.4864 348.445 -15.8296C347.164 -16.1728 345.799 -15.9932 344.651 -15.3301C338.588 -11.8301 341.856 -2.16986 341.856 -2.16986ZM521.713 189.49L511.713 206.811L484 190.811L494 173.49M497.856 198.811L512.856 172.83M512.856 172.83L505.062 168.33C503.914 167.667 503.076 166.575 502.733 165.294C502.389 164.013 502.569 162.648 503.232 161.5C503.895 160.352 504.987 159.514 506.268 159.17C507.549 158.827 508.914 159.007 510.062 159.67C516.124 163.17 512.856 172.83 512.856 172.83ZM512.856 172.83L520.651 177.33C521.799 177.993 523.164 178.173 524.445 177.83C525.726 177.486 526.818 176.648 527.481 175.5C528.144 174.352 528.324 172.987 527.98 171.706C527.637 170.425 526.799 169.333 525.651 168.67C519.588 165.17 512.856 172.83 512.856 172.83ZM521.713 292.49L531.713 309.811L504 325.811L494 308.49M517.856 317.811L502.856 291.83M502.856 291.83L495.062 296.33C493.914 296.993 492.549 297.173 491.268 296.83C489.987 296.486 488.895 295.648 488.232 294.5C487.569 293.352 487.389 291.987 487.733 290.706C488.076 289.425 488.914 288.333 490.062 287.67C496.124 284.17 502.856 291.83 502.856 291.83ZM502.856 291.83L510.651 287.33C511.799 286.667 512.637 285.575 512.98 284.294C513.323 283.013 513.144 281.648 512.481 280.5C511.818 279.352 510.726 278.514 509.445 278.17C508.164 277.827 506.799 278.007 505.651 278.67C499.588 282.17 502.856 291.83 502.856 291.83ZM521.713 427.49L511.713 444.811L484 428.811L494 411.49M497.856 436.811L512.856 410.83M512.856 410.83L505.062 406.33C503.914 405.667 503.076 404.575 502.733 403.294C502.389 402.013 502.569 400.648 503.232 399.5C503.895 398.352 504.987 397.514 506.268 397.17C507.549 396.827 508.914 397.007 510.062 397.67C516.124 401.17 512.856 410.83 512.856 410.83ZM512.856 410.83L520.651 415.33C521.799 415.993 523.164 416.173 524.445 415.83C525.726 415.486 526.818 414.648 527.481 413.5C528.144 412.352 528.324 410.987 527.98 409.706C527.637 408.425 526.799 407.333 525.651 406.67C519.588 403.17 512.856 410.83 512.856 410.83ZM521.713 530.49L531.713 547.811L504 563.811L494 546.49M517.856 555.811L502.856 529.83M502.856 529.83L495.062 534.33C493.914 534.993 492.549 535.173 491.268 534.83C489.987 534.486 488.895 533.648 488.232 532.5C487.569 531.352 487.389 529.987 487.733 528.706C488.076 527.425 488.914 526.333 490.062 525.67C496.124 522.17 502.856 529.83 502.856 529.83ZM502.856 529.83L510.651 525.33C511.799 524.667 512.637 523.575 512.98 522.294C513.323 521.013 513.144 519.648 512.481 518.5C511.818 517.352 510.726 516.514 509.445 516.17C508.164 515.827 506.799 516.007 505.651 516.67C499.588 520.17 502.856 529.83 502.856 529.83ZM521.713 665.49L511.713 682.811L484 666.811L494 649.49M497.856 674.811L512.856 648.83M512.856 648.83L505.062 644.33C503.914 643.667 503.076 642.575 502.733 641.294C502.389 640.013 502.569 638.648 503.232 637.5C503.895 636.352 504.987 635.514 506.268 635.17C507.549 634.827 508.914 635.007 510.062 635.67C516.124 639.17 512.856 648.83 512.856 648.83ZM512.856 648.83L520.651 653.33C521.799 653.993 523.164 654.173 524.445 653.83C525.726 653.486 526.818 652.648 527.481 651.5C528.144 650.352 528.324 648.987 527.98 647.706C527.637 646.425 526.799 645.333 525.651 644.67C519.588 641.17 512.856 648.83 512.856 648.83ZM521.713 768.49L531.713 785.811L504 801.811L494 784.49M517.856 793.811L502.856 767.83M502.856 767.83L495.062 772.33C493.914 772.993 492.549 773.173 491.268 772.83C489.987 772.486 488.895 771.648 488.232 770.5C487.569 769.352 487.389 767.987 487.733 766.706C488.076 765.425 488.914 764.333 490.062 763.67C496.124 760.17 502.856 767.83 502.856 767.83ZM502.856 767.83L510.651 763.33C511.799 762.667 512.637 761.575 512.98 760.294C513.323 759.013 513.144 757.648 512.481 756.5C511.818 755.352 510.726 754.514 509.445 754.17C508.164 753.827 506.799 754.007 505.651 754.67C499.588 758.17 502.856 767.83 502.856 767.83ZM521.713 903.49L511.713 920.811L484 904.811L494 887.49M497.856 912.811L512.856 886.83M512.856 886.83L505.062 882.33C503.914 881.667 503.076 880.575 502.733 879.294C502.389 878.013 502.569 876.648 503.232 875.5C503.895 874.352 504.987 873.514 506.268 873.17C507.549 872.827 508.914 873.007 510.062 873.67C516.124 877.17 512.856 886.83 512.856 886.83ZM512.856 886.83L520.651 891.33C521.799 891.993 523.164 892.173 524.445 891.83C525.726 891.486 526.818 890.648 527.481 889.5C528.144 888.352 528.324 886.987 527.98 885.706C527.637 884.425 526.799 883.333 525.651 882.67C519.588 879.17 512.856 886.83 512.856 886.83ZM521.713 1006.49L531.713 1023.81L504 1039.81L494 1022.49M517.856 1031.81L502.856 1005.83M502.856 1005.83L495.062 1010.33C493.914 1010.99 492.549 1011.17 491.268 1010.83C489.987 1010.49 488.895 1009.65 488.232 1008.5C487.569 1007.35 487.389 1005.99 487.733 1004.71C488.076 1003.43 488.914 1002.33 490.062 1001.67C496.124 998.17 502.856 1005.83 502.856 1005.83ZM502.856 1005.83L510.651 1001.33C511.799 1000.67 512.637 999.575 512.98 998.294C513.323 997.013 513.144 995.648 512.481 994.5C511.818 993.352 510.726 992.514 509.445 992.17C508.164 991.827 506.799 992.007 505.651 992.67C499.588 996.17 502.856 1005.83 502.856 1005.83ZM521.713 54.4904L531.713 71.8109L504 87.8109L494 70.4904M517.856 79.8109L502.856 53.8301M502.856 53.8301L495.062 58.3301C493.914 58.9932 492.549 59.1729 491.268 58.8296C489.987 58.4864 488.895 57.6484 488.232 56.5C487.569 55.3516 487.389 53.9868 487.733 52.7059C488.076 51.425 488.914 50.3329 490.062 49.6699C496.124 46.1699 502.856 53.8301 502.856 53.8301ZM502.856 53.8301L510.651 49.3301C511.799 48.6671 512.637 47.575 512.98 46.2941C513.323 45.0132 513.144 43.6484 512.481 42.5C511.818 41.3516 510.726 40.5136 509.445 40.1704C508.164 39.8272 506.799 40.0068 505.651 40.6699C499.588 44.1699 502.856 53.8301 502.856 53.8301ZM682.713 133.49L672.713 150.811L645 134.811L655 117.49M658.856 142.811L673.856 116.83M673.856 116.83L666.062 112.33C664.914 111.667 664.076 110.575 663.733 109.294C663.389 108.013 663.569 106.648 664.232 105.5C664.895 104.352 665.987 103.514 667.268 103.17C668.549 102.827 669.914 103.007 671.062 103.67C677.124 107.17 673.856 116.83 673.856 116.83ZM673.856 116.83L681.651 121.33C682.799 121.993 684.164 122.173 685.445 121.83C686.726 121.486 687.818 120.648 688.481 119.5C689.144 118.352 689.324 116.987 688.98 115.706C688.637 114.425 687.799 113.333 686.651 112.67C680.588 109.17 673.856 116.83 673.856 116.83ZM682.713 236.49L692.713 253.811L665 269.811L655 252.49M678.856 261.811L663.856 235.83M663.856 235.83L656.062 240.33C654.914 240.993 653.549 241.173 652.268 240.83C650.987 240.486 649.895 239.648 649.232 238.5C648.569 237.352 648.389 235.987 648.733 234.706C649.076 233.425 649.914 232.333 651.062 231.67C657.124 228.17 663.856 235.83 663.856 235.83ZM663.856 235.83L671.651 231.33C672.799 230.667 673.637 229.575 673.98 228.294C674.324 227.013 674.144 225.648 673.481 224.5C672.818 223.352 671.726 222.514 670.445 222.17C669.164 221.827 667.799 222.007 666.651 222.67C660.588 226.17 663.856 235.83 663.856 235.83ZM682.713 371.49L672.713 388.811L645 372.811L655 355.49M658.856 380.811L673.856 354.83M673.856 354.83L666.062 350.33C664.914 349.667 664.076 348.575 663.733 347.294C663.389 346.013 663.569 344.648 664.232 343.5C664.895 342.352 665.987 341.514 667.268 341.17C668.549 340.827 669.914 341.007 671.062 341.67C677.124 345.17 673.856 354.83 673.856 354.83ZM673.856 354.83L681.651 359.33C682.799 359.993 684.164 360.173 685.445 359.83C686.726 359.486 687.818 358.648 688.481 357.5C689.144 356.352 689.324 354.987 688.98 353.706C688.637 352.425 687.799 351.333 686.651 350.67C680.588 347.17 673.856 354.83 673.856 354.83ZM682.713 474.49L692.713 491.811L665 507.811L655 490.49M678.856 499.811L663.856 473.83M663.856 473.83L656.062 478.33C654.914 478.993 653.549 479.173 652.268 478.83C650.987 478.486 649.895 477.648 649.232 476.5C648.569 475.352 648.389 473.987 648.733 472.706C649.076 471.425 649.914 470.333 651.062 469.67C657.124 466.17 663.856 473.83 663.856 473.83ZM663.856 473.83L671.651 469.33C672.799 468.667 673.637 467.575 673.98 466.294C674.324 465.013 674.144 463.648 673.481 462.5C672.818 461.352 671.726 460.514 670.445 460.17C669.164 459.827 667.799 460.007 666.651 460.67C660.588 464.17 663.856 473.83 663.856 473.83ZM682.713 609.49L672.713 626.811L645 610.811L655 593.49M658.856 618.811L673.856 592.83M673.856 592.83L666.062 588.33C664.914 587.667 664.076 586.575 663.733 585.294C663.389 584.013 663.569 582.648 664.232 581.5C664.895 580.352 665.987 579.514 667.268 579.17C668.549 578.827 669.914 579.007 671.062 579.67C677.124 583.17 673.856 592.83 673.856 592.83ZM673.856 592.83L681.651 597.33C682.799 597.993 684.164 598.173 685.445 597.83C686.726 597.486 687.818 596.648 688.481 595.5C689.144 594.352 689.324 592.987 688.98 591.706C688.637 590.425 687.799 589.333 686.651 588.67C680.588 585.17 673.856 592.83 673.856 592.83ZM682.713 712.49L692.713 729.811L665 745.811L655 728.49M678.856 737.811L663.856 711.83M663.856 711.83L656.062 716.33C654.914 716.993 653.549 717.173 652.268 716.83C650.987 716.486 649.895 715.648 649.232 714.5C648.569 713.352 648.389 711.987 648.733 710.706C649.076 709.425 649.914 708.333 651.062 707.67C657.124 704.17 663.856 711.83 663.856 711.83ZM663.856 711.83L671.651 707.33C672.799 706.667 673.637 705.575 673.98 704.294C674.324 703.013 674.144 701.648 673.481 700.5C672.818 699.352 671.726 698.514 670.445 698.17C669.164 697.827 667.799 698.007 666.651 698.67C660.588 702.17 663.856 711.83 663.856 711.83ZM682.713 847.49L672.713 864.811L645 848.811L655 831.49M658.856 856.811L673.856 830.83M673.856 830.83L666.062 826.33C664.914 825.667 664.076 824.575 663.733 823.294C663.389 822.013 663.569 820.648 664.232 819.5C664.895 818.352 665.987 817.514 667.268 817.17C668.549 816.827 669.914 817.007 671.062 817.67C677.124 821.17 673.856 830.83 673.856 830.83ZM673.856 830.83L681.651 835.33C682.799 835.993 684.164 836.173 685.445 835.83C686.726 835.486 687.818 834.648 688.481 833.5C689.144 832.352 689.324 830.987 688.98 829.706C688.637 828.425 687.799 827.333 686.651 826.67C680.588 823.17 673.856 830.83 673.856 830.83ZM682.713 950.49L692.713 967.811L665 983.811L655 966.49M678.856 975.811L663.856 949.83M663.856 949.83L656.062 954.33C654.914 954.993 653.549 955.173 652.268 954.83C650.987 954.486 649.895 953.648 649.232 952.5C648.569 951.352 648.389 949.987 648.733 948.706C649.076 947.425 649.914 946.333 651.062 945.67C657.124 942.17 663.856 949.83 663.856 949.83ZM663.856 949.83L671.651 945.33C672.799 944.667 673.637 943.575 673.98 942.294C674.324 941.013 674.144 939.648 673.481 938.5C672.818 937.352 671.726 936.514 670.445 936.17C669.164 935.827 667.799 936.007 666.651 936.67C660.588 940.17 663.856 949.83 663.856 949.83ZM682.713 -1.50961L692.713 15.8109L665 31.8109L655 14.4904M678.856 23.8109L663.856 -2.16986M663.856 -2.16986L656.062 2.33014C654.914 2.99318 653.549 3.17286 652.268 2.82964C650.987 2.48643 649.895 1.64843 649.232 0.500013C648.569 -0.648408 648.389 -2.01319 648.733 -3.29408C649.076 -4.57498 649.914 -5.66707 651.062 -6.33011C657.124 -9.83011 663.856 -2.16986 663.856 -2.16986ZM663.856 -2.16986L671.651 -6.66986C672.799 -7.3329 673.637 -8.42499 673.98 -9.70589C674.324 -10.9868 674.144 -12.3516 673.481 -13.5C672.818 -14.6484 671.726 -15.4864 670.445 -15.8296C669.164 -16.1728 667.799 -15.9932 666.651 -15.3301C660.588 -11.8301 663.856 -2.16986 663.856 -2.16986ZM843.713 189.49L833.713 206.811L806 190.811L816 173.49M819.856 198.811L834.856 172.83M834.856 172.83L827.062 168.33C825.914 167.667 825.076 166.575 824.733 165.294C824.389 164.013 824.569 162.648 825.232 161.5C825.895 160.352 826.987 159.514 828.268 159.17C829.549 158.827 830.914 159.007 832.062 159.67C838.124 163.17 834.856 172.83 834.856 172.83ZM834.856 172.83L842.651 177.33C843.799 177.993 845.164 178.173 846.445 177.83C847.726 177.486 848.818 176.648 849.481 175.5C850.144 174.352 850.324 172.987 849.98 171.706C849.637 170.425 848.799 169.333 847.651 168.67C841.588 165.17 834.856 172.83 834.856 172.83ZM843.713 292.49L853.713 309.811L826 325.811L816 308.49M839.856 317.811L824.856 291.83M824.856 291.83L817.062 296.33C815.914 296.993 814.549 297.173 813.268 296.83C811.987 296.486 810.895 295.648 810.232 294.5C809.569 293.352 809.389 291.987 809.733 290.706C810.076 289.425 810.914 288.333 812.062 287.67C818.124 284.17 824.856 291.83 824.856 291.83ZM824.856 291.83L832.651 287.33C833.799 286.667 834.637 285.575 834.98 284.294C835.324 283.013 835.144 281.648 834.481 280.5C833.818 279.352 832.726 278.514 831.445 278.17C830.164 277.827 828.799 278.007 827.651 278.67C821.588 282.17 824.856 291.83 824.856 291.83ZM843.713 427.49L833.713 444.811L806 428.811L816 411.49M819.856 436.811L834.856 410.83M834.856 410.83L827.062 406.33C825.914 405.667 825.076 404.575 824.733 403.294C824.389 402.013 824.569 400.648 825.232 399.5C825.895 398.352 826.987 397.514 828.268 397.17C829.549 396.827 830.914 397.007 832.062 397.67C838.124 401.17 834.856 410.83 834.856 410.83ZM834.856 410.83L842.651 415.33C843.799 415.993 845.164 416.173 846.445 415.83C847.726 415.486 848.818 414.648 849.481 413.5C850.144 412.352 850.324 410.987 849.98 409.706C849.637 408.425 848.799 407.333 847.651 406.67C841.588 403.17 834.856 410.83 834.856 410.83ZM843.713 530.49L853.713 547.811L826 563.811L816 546.49M839.856 555.811L824.856 529.83M824.856 529.83L817.062 534.33C815.914 534.993 814.549 535.173 813.268 534.83C811.987 534.486 810.895 533.648 810.232 532.5C809.569 531.352 809.389 529.987 809.733 528.706C810.076 527.425 810.914 526.333 812.062 525.67C818.124 522.17 824.856 529.83 824.856 529.83ZM824.856 529.83L832.651 525.33C833.799 524.667 834.637 523.575 834.98 522.294C835.324 521.013 835.144 519.648 834.481 518.5C833.818 517.352 832.726 516.514 831.445 516.17C830.164 515.827 828.799 516.007 827.651 516.67C821.588 520.17 824.856 529.83 824.856 529.83ZM843.713 665.49L833.713 682.811L806 666.811L816 649.49M819.856 674.811L834.856 648.83M834.856 648.83L827.062 644.33C825.914 643.667 825.076 642.575 824.733 641.294C824.389 640.013 824.569 638.648 825.232 637.5C825.895 636.352 826.987 635.514 828.268 635.17C829.549 634.827 830.914 635.007 832.062 635.67C838.124 639.17 834.856 648.83 834.856 648.83ZM834.856 648.83L842.651 653.33C843.799 653.993 845.164 654.173 846.445 653.83C847.726 653.486 848.818 652.648 849.481 651.5C850.144 650.352 850.324 648.987 849.98 647.706C849.637 646.425 848.799 645.333 847.651 644.67C841.588 641.17 834.856 648.83 834.856 648.83ZM843.713 768.49L853.713 785.811L826 801.811L816 784.49M839.856 793.811L824.856 767.83M824.856 767.83L817.062 772.33C815.914 772.993 814.549 773.173 813.268 772.83C811.987 772.486 810.895 771.648 810.232 770.5C809.569 769.352 809.389 767.987 809.733 766.706C810.076 765.425 810.914 764.333 812.062 763.67C818.124 760.17 824.856 767.83 824.856 767.83ZM824.856 767.83L832.651 763.33C833.799 762.667 834.637 761.575 834.98 760.294C835.324 759.013 835.144 757.648 834.481 756.5C833.818 755.352 832.726 754.514 831.445 754.17C830.164 753.827 828.799 754.007 827.651 754.67C821.588 758.17 824.856 767.83 824.856 767.83ZM843.713 903.49L833.713 920.811L806 904.811L816 887.49M819.856 912.811L834.856 886.83M834.856 886.83L827.062 882.33C825.914 881.667 825.076 880.575 824.733 879.294C824.389 878.013 824.569 876.648 825.232 875.5C825.895 874.352 826.987 873.514 828.268 873.17C829.549 872.827 830.914 873.007 832.062 873.67C838.124 877.17 834.856 886.83 834.856 886.83ZM834.856 886.83L842.651 891.33C843.799 891.993 845.164 892.173 846.445 891.83C847.726 891.486 848.818 890.648 849.481 889.5C850.144 888.352 850.324 886.987 849.98 885.706C849.637 884.425 848.799 883.333 847.651 882.67C841.588 879.17 834.856 886.83 834.856 886.83ZM843.713 1006.49L853.713 1023.81L826 1039.81L816 1022.49M839.856 1031.81L824.856 1005.83M824.856 1005.83L817.062 1010.33C815.914 1010.99 814.549 1011.17 813.268 1010.83C811.987 1010.49 810.895 1009.65 810.232 1008.5C809.569 1007.35 809.389 1005.99 809.733 1004.71C810.076 1003.43 810.914 1002.33 812.062 1001.67C818.124 998.17 824.856 1005.83 824.856 1005.83ZM824.856 1005.83L832.651 1001.33C833.799 1000.67 834.637 999.575 834.98 998.294C835.324 997.013 835.144 995.648 834.481 994.5C833.818 993.352 832.726 992.514 831.445 992.17C830.164 991.827 828.799 992.007 827.651 992.67C821.588 996.17 824.856 1005.83 824.856 1005.83ZM843.713 54.4904L853.713 71.8109L826 87.8109L816 70.4904M839.856 79.8109L824.856 53.8301M824.856 53.8301L817.062 58.3301C815.914 58.9932 814.549 59.1729 813.268 58.8296C811.987 58.4864 810.895 57.6484 810.232 56.5C809.569 55.3516 809.389 53.9868 809.733 52.7059C810.076 51.425 810.914 50.3329 812.062 49.6699C818.124 46.1699 824.856 53.8301 824.856 53.8301ZM824.856 53.8301L832.651 49.3301C833.799 48.6671 834.637 47.575 834.98 46.2941C835.324 45.0132 835.144 43.6484 834.481 42.5C833.818 41.3516 832.726 40.5136 831.445 40.1704C830.164 39.8272 828.799 40.0068 827.651 40.6699C821.588 44.1699 824.856 53.8301 824.856 53.8301ZM1004.71 133.49L994.713 150.811L967 134.811L977 117.49M980.856 142.811L995.856 116.83M995.856 116.83L988.062 112.33C986.914 111.667 986.076 110.575 985.733 109.294C985.389 108.013 985.569 106.648 986.232 105.5C986.895 104.352 987.987 103.514 989.268 103.17C990.549 102.827 991.914 103.007 993.062 103.67C999.124 107.17 995.856 116.83 995.856 116.83ZM995.856 116.83L1003.65 121.33C1004.8 121.993 1006.16 122.173 1007.44 121.83C1008.73 121.486 1009.82 120.648 1010.48 119.5C1011.14 118.352 1011.32 116.987 1010.98 115.706C1010.64 114.425 1009.8 113.333 1008.65 112.67C1002.59 109.17 995.856 116.83 995.856 116.83ZM1004.71 236.49L1014.71 253.811L987 269.811L977 252.49M1000.86 261.811L985.856 235.83M985.856 235.83L978.062 240.33C976.914 240.993 975.549 241.173 974.268 240.83C972.987 240.486 971.895 239.648 971.232 238.5C970.569 237.352 970.389 235.987 970.733 234.706C971.076 233.425 971.914 232.333 973.062 231.67C979.124 228.17 985.856 235.83 985.856 235.83ZM985.856 235.83L993.651 231.33C994.799 230.667 995.637 229.575 995.98 228.294C996.324 227.013 996.144 225.648 995.481 224.5C994.818 223.352 993.726 222.514 992.445 222.17C991.164 221.827 989.799 222.007 988.651 222.67C982.588 226.17 985.856 235.83 985.856 235.83ZM1004.71 371.49L994.713 388.811L967 372.811L977 355.49M980.856 380.811L995.856 354.83M995.856 354.83L988.062 350.33C986.914 349.667 986.076 348.575 985.733 347.294C985.389 346.013 985.569 344.648 986.232 343.5C986.895 342.352 987.987 341.514 989.268 341.17C990.549 340.827 991.914 341.007 993.062 341.67C999.124 345.17 995.856 354.83 995.856 354.83ZM995.856 354.83L1003.65 359.33C1004.8 359.993 1006.16 360.173 1007.44 359.83C1008.73 359.486 1009.82 358.648 1010.48 357.5C1011.14 356.352 1011.32 354.987 1010.98 353.706C1010.64 352.425 1009.8 351.333 1008.65 350.67C1002.59 347.17 995.856 354.83 995.856 354.83ZM1004.71 474.49L1014.71 491.811L987 507.811L977 490.49M1000.86 499.811L985.856 473.83M985.856 473.83L978.062 478.33C976.914 478.993 975.549 479.173 974.268 478.83C972.987 478.486 971.895 477.648 971.232 476.5C970.569 475.352 970.389 473.987 970.733 472.706C971.076 471.425 971.914 470.333 973.062 469.67C979.124 466.17 985.856 473.83 985.856 473.83ZM985.856 473.83L993.651 469.33C994.799 468.667 995.637 467.575 995.98 466.294C996.324 465.013 996.144 463.648 995.481 462.5C994.818 461.352 993.726 460.514 992.445 460.17C991.164 459.827 989.799 460.007 988.651 460.67C982.588 464.17 985.856 473.83 985.856 473.83ZM1004.71 609.49L994.713 626.811L967 610.811L977 593.49M980.856 618.811L995.856 592.83M995.856 592.83L988.062 588.33C986.914 587.667 986.076 586.575 985.733 585.294C985.389 584.013 985.569 582.648 986.232 581.5C986.895 580.352 987.987 579.514 989.268 579.17C990.549 578.827 991.914 579.007 993.062 579.67C999.124 583.17 995.856 592.83 995.856 592.83ZM995.856 592.83L1003.65 597.33C1004.8 597.993 1006.16 598.173 1007.44 597.83C1008.73 597.486 1009.82 596.648 1010.48 595.5C1011.14 594.352 1011.32 592.987 1010.98 591.706C1010.64 590.425 1009.8 589.333 1008.65 588.67C1002.59 585.17 995.856 592.83 995.856 592.83ZM1004.71 712.49L1014.71 729.811L987 745.811L977 728.49M1000.86 737.811L985.856 711.83M985.856 711.83L978.062 716.33C976.914 716.993 975.549 717.173 974.268 716.83C972.987 716.486 971.895 715.648 971.232 714.5C970.569 713.352 970.389 711.987 970.733 710.706C971.076 709.425 971.914 708.333 973.062 707.67C979.124 704.17 985.856 711.83 985.856 711.83ZM985.856 711.83L993.651 707.33C994.799 706.667 995.637 705.575 995.98 704.294C996.324 703.013 996.144 701.648 995.481 700.5C994.818 699.352 993.726 698.514 992.445 698.17C991.164 697.827 989.799 698.007 988.651 698.67C982.588 702.17 985.856 711.83 985.856 711.83ZM1004.71 847.49L994.713 864.811L967 848.811L977 831.49M980.856 856.811L995.856 830.83M995.856 830.83L988.062 826.33C986.914 825.667 986.076 824.575 985.733 823.294C985.389 822.013 985.569 820.648 986.232 819.5C986.895 818.352 987.987 817.514 989.268 817.17C990.549 816.827 991.914 817.007 993.062 817.67C999.124 821.17 995.856 830.83 995.856 830.83ZM995.856 830.83L1003.65 835.33C1004.8 835.993 1006.16 836.173 1007.44 835.83C1008.73 835.486 1009.82 834.648 1010.48 833.5C1011.14 832.352 1011.32 830.987 1010.98 829.706C1010.64 828.425 1009.8 827.333 1008.65 826.67C1002.59 823.17 995.856 830.83 995.856 830.83ZM1004.71 950.49L1014.71 967.811L987 983.811L977 966.49M1000.86 975.811L985.856 949.83M985.856 949.83L978.062 954.33C976.914 954.993 975.549 955.173 974.268 954.83C972.987 954.486 971.895 953.648 971.232 952.5C970.569 951.352 970.389 949.987 970.733 948.706C971.076 947.425 971.914 946.333 973.062 945.67C979.124 942.17 985.856 949.83 985.856 949.83ZM985.856 949.83L993.651 945.33C994.799 944.667 995.637 943.575 995.98 942.294C996.324 941.013 996.144 939.648 995.481 938.5C994.818 937.352 993.726 936.514 992.445 936.17C991.164 935.827 989.799 936.007 988.651 936.67C982.588 940.17 985.856 949.83 985.856 949.83ZM1004.71 -1.50961L1014.71 15.8109L987 31.8109L977 14.4904M1000.86 23.8109L985.856 -2.16986M985.856 -2.16986L978.062 2.33014C976.914 2.99318 975.549 3.17286 974.268 2.82964C972.987 2.48643 971.895 1.64843 971.232 0.500013C970.569 -0.648408 970.389 -2.01319 970.733 -3.29408C971.076 -4.57498 971.914 -5.66707 973.062 -6.33011C979.124 -9.83011 985.856 -2.16986 985.856 -2.16986ZM985.856 -2.16986L993.651 -6.66986C994.799 -7.3329 995.637 -8.42499 995.98 -9.70589C996.324 -10.9868 996.144 -12.3516 995.481 -13.5C994.818 -14.6484 993.726 -15.4864 992.445 -15.8296C991.164 -16.1728 989.799 -15.9932 988.651 -15.3301C982.588 -11.8301 985.856 -2.16986 985.856 -2.16986ZM1165.71 189.49L1155.71 206.811L1128 190.811L1138 173.49M1141.86 198.811L1156.86 172.83M1156.86 172.83L1149.06 168.33C1147.91 167.667 1147.08 166.575 1146.73 165.294C1146.39 164.013 1146.57 162.648 1147.23 161.5C1147.9 160.352 1148.99 159.514 1150.27 159.17C1151.55 158.827 1152.91 159.007 1154.06 159.67C1160.12 163.17 1156.86 172.83 1156.86 172.83ZM1156.86 172.83L1164.65 177.33C1165.8 177.993 1167.16 178.173 1168.44 177.83C1169.73 177.486 1170.82 176.648 1171.48 175.5C1172.14 174.352 1172.32 172.987 1171.98 171.706C1171.64 170.425 1170.8 169.333 1169.65 168.67C1163.59 165.17 1156.86 172.83 1156.86 172.83ZM1165.71 292.49L1175.71 309.811L1148 325.811L1138 308.49M1161.86 317.811L1146.86 291.83M1146.86 291.83L1139.06 296.33C1137.91 296.993 1136.55 297.173 1135.27 296.83C1133.99 296.486 1132.9 295.648 1132.23 294.5C1131.57 293.352 1131.39 291.987 1131.73 290.706C1132.08 289.425 1132.91 288.333 1134.06 287.67C1140.12 284.17 1146.86 291.83 1146.86 291.83ZM1146.86 291.83L1154.65 287.33C1155.8 286.667 1156.64 285.575 1156.98 284.294C1157.32 283.013 1157.14 281.648 1156.48 280.5C1155.82 279.352 1154.73 278.514 1153.44 278.17C1152.16 277.827 1150.8 278.007 1149.65 278.67C1143.59 282.17 1146.86 291.83 1146.86 291.83ZM1165.71 427.49L1155.71 444.811L1128 428.811L1138 411.49M1141.86 436.811L1156.86 410.83M1156.86 410.83L1149.06 406.33C1147.91 405.667 1147.08 404.575 1146.73 403.294C1146.39 402.013 1146.57 400.648 1147.23 399.5C1147.9 398.352 1148.99 397.514 1150.27 397.17C1151.55 396.827 1152.91 397.007 1154.06 397.67C1160.12 401.17 1156.86 410.83 1156.86 410.83ZM1156.86 410.83L1164.65 415.33C1165.8 415.993 1167.16 416.173 1168.44 415.83C1169.73 415.486 1170.82 414.648 1171.48 413.5C1172.14 412.352 1172.32 410.987 1171.98 409.706C1171.64 408.425 1170.8 407.333 1169.65 406.67C1163.59 403.17 1156.86 410.83 1156.86 410.83ZM1165.71 530.49L1175.71 547.811L1148 563.811L1138 546.49M1161.86 555.811L1146.86 529.83M1146.86 529.83L1139.06 534.33C1137.91 534.993 1136.55 535.173 1135.27 534.83C1133.99 534.486 1132.9 533.648 1132.23 532.5C1131.57 531.352 1131.39 529.987 1131.73 528.706C1132.08 527.425 1132.91 526.333 1134.06 525.67C1140.12 522.17 1146.86 529.83 1146.86 529.83ZM1146.86 529.83L1154.65 525.33C1155.8 524.667 1156.64 523.575 1156.98 522.294C1157.32 521.013 1157.14 519.648 1156.48 518.5C1155.82 517.352 1154.73 516.514 1153.44 516.17C1152.16 515.827 1150.8 516.007 1149.65 516.67C1143.59 520.17 1146.86 529.83 1146.86 529.83ZM1165.71 665.49L1155.71 682.811L1128 666.811L1138 649.49M1141.86 674.811L1156.86 648.83M1156.86 648.83L1149.06 644.33C1147.91 643.667 1147.08 642.575 1146.73 641.294C1146.39 640.013 1146.57 638.648 1147.23 637.5C1147.9 636.352 1148.99 635.514 1150.27 635.17C1151.55 634.827 1152.91 635.007 1154.06 635.67C1160.12 639.17 1156.86 648.83 1156.86 648.83ZM1156.86 648.83L1164.65 653.33C1165.8 653.993 1167.16 654.173 1168.44 653.83C1169.73 653.486 1170.82 652.648 1171.48 651.5C1172.14 650.352 1172.32 648.987 1171.98 647.706C1171.64 646.425 1170.8 645.333 1169.65 644.67C1163.59 641.17 1156.86 648.83 1156.86 648.83ZM1165.71 768.49L1175.71 785.811L1148 801.811L1138 784.49M1161.86 793.811L1146.86 767.83M1146.86 767.83L1139.06 772.33C1137.91 772.993 1136.55 773.173 1135.27 772.83C1133.99 772.486 1132.9 771.648 1132.23 770.5C1131.57 769.352 1131.39 767.987 1131.73 766.706C1132.08 765.425 1132.91 764.333 1134.06 763.67C1140.12 760.17 1146.86 767.83 1146.86 767.83ZM1146.86 767.83L1154.65 763.33C1155.8 762.667 1156.64 761.575 1156.98 760.294C1157.32 759.013 1157.14 757.648 1156.48 756.5C1155.82 755.352 1154.73 754.514 1153.44 754.17C1152.16 753.827 1150.8 754.007 1149.65 754.67C1143.59 758.17 1146.86 767.83 1146.86 767.83ZM1165.71 903.49L1155.71 920.811L1128 904.811L1138 887.49M1141.86 912.811L1156.86 886.83M1156.86 886.83L1149.06 882.33C1147.91 881.667 1147.08 880.575 1146.73 879.294C1146.39 878.013 1146.57 876.648 1147.23 875.5C1147.9 874.352 1148.99 873.514 1150.27 873.17C1151.55 872.827 1152.91 873.007 1154.06 873.67C1160.12 877.17 1156.86 886.83 1156.86 886.83ZM1156.86 886.83L1164.65 891.33C1165.8 891.993 1167.16 892.173 1168.44 891.83C1169.73 891.486 1170.82 890.648 1171.48 889.5C1172.14 888.352 1172.32 886.987 1171.98 885.706C1171.64 884.425 1170.8 883.333 1169.65 882.67C1163.59 879.17 1156.86 886.83 1156.86 886.83ZM1165.71 1006.49L1175.71 1023.81L1148 1039.81L1138 1022.49M1161.86 1031.81L1146.86 1005.83M1146.86 1005.83L1139.06 1010.33C1137.91 1010.99 1136.55 1011.17 1135.27 1010.83C1133.99 1010.49 1132.9 1009.65 1132.23 1008.5C1131.57 1007.35 1131.39 1005.99 1131.73 1004.71C1132.08 1003.43 1132.91 1002.33 1134.06 1001.67C1140.12 998.17 1146.86 1005.83 1146.86 1005.83ZM1146.86 1005.83L1154.65 1001.33C1155.8 1000.67 1156.64 999.575 1156.98 998.294C1157.32 997.013 1157.14 995.648 1156.48 994.5C1155.82 993.352 1154.73 992.514 1153.44 992.17C1152.16 991.827 1150.8 992.007 1149.65 992.67C1143.59 996.17 1146.86 1005.83 1146.86 1005.83ZM1165.71 54.4904L1175.71 71.8109L1148 87.8109L1138 70.4904M1161.86 79.8109L1146.86 53.8301M1146.86 53.8301L1139.06 58.3301C1137.91 58.9932 1136.55 59.1729 1135.27 58.8296C1133.99 58.4864 1132.9 57.6484 1132.23 56.5C1131.57 55.3516 1131.39 53.9868 1131.73 52.7059C1132.08 51.425 1132.91 50.3329 1134.06 49.6699C1140.12 46.1699 1146.86 53.8301 1146.86 53.8301ZM1146.86 53.8301L1154.65 49.3301C1155.8 48.6671 1156.64 47.575 1156.98 46.2941C1157.32 45.0132 1157.14 43.6484 1156.48 42.5C1155.82 41.3516 1154.73 40.5136 1153.44 40.1704C1152.16 39.8272 1150.8 40.0068 1149.65 40.6699C1143.59 44.1699 1146.86 53.8301 1146.86 53.8301ZM1326.71 133.49L1316.71 150.811L1289 134.811L1299 117.49M1302.86 142.811L1317.86 116.83M1317.86 116.83L1310.06 112.33C1308.91 111.667 1308.08 110.575 1307.73 109.294C1307.39 108.013 1307.57 106.648 1308.23 105.5C1308.9 104.352 1309.99 103.514 1311.27 103.17C1312.55 102.827 1313.91 103.007 1315.06 103.67C1321.12 107.17 1317.86 116.83 1317.86 116.83ZM1317.86 116.83L1325.65 121.33C1326.8 121.993 1328.16 122.173 1329.44 121.83C1330.73 121.486 1331.82 120.648 1332.48 119.5C1333.14 118.352 1333.32 116.987 1332.98 115.706C1332.64 114.425 1331.8 113.333 1330.65 112.67C1324.59 109.17 1317.86 116.83 1317.86 116.83ZM1326.71 236.49L1336.71 253.811L1309 269.811L1299 252.49M1322.86 261.811L1307.86 235.83M1307.86 235.83L1300.06 240.33C1298.91 240.993 1297.55 241.173 1296.27 240.83C1294.99 240.486 1293.9 239.648 1293.23 238.5C1292.57 237.352 1292.39 235.987 1292.73 234.706C1293.08 233.425 1293.91 232.333 1295.06 231.67C1301.12 228.17 1307.86 235.83 1307.86 235.83ZM1307.86 235.83L1315.65 231.33C1316.8 230.667 1317.64 229.575 1317.98 228.294C1318.32 227.013 1318.14 225.648 1317.48 224.5C1316.82 223.352 1315.73 222.514 1314.44 222.17C1313.16 221.827 1311.8 222.007 1310.65 222.67C1304.59 226.17 1307.86 235.83 1307.86 235.83ZM1326.71 371.49L1316.71 388.811L1289 372.811L1299 355.49M1302.86 380.811L1317.86 354.83M1317.86 354.83L1310.06 350.33C1308.91 349.667 1308.08 348.575 1307.73 347.294C1307.39 346.013 1307.57 344.648 1308.23 343.5C1308.9 342.352 1309.99 341.514 1311.27 341.17C1312.55 340.827 1313.91 341.007 1315.06 341.67C1321.12 345.17 1317.86 354.83 1317.86 354.83ZM1317.86 354.83L1325.65 359.33C1326.8 359.993 1328.16 360.173 1329.44 359.83C1330.73 359.486 1331.82 358.648 1332.48 357.5C1333.14 356.352 1333.32 354.987 1332.98 353.706C1332.64 352.425 1331.8 351.333 1330.65 350.67C1324.59 347.17 1317.86 354.83 1317.86 354.83ZM1326.71 474.49L1336.71 491.811L1309 507.811L1299 490.49M1322.86 499.811L1307.86 473.83M1307.86 473.83L1300.06 478.33C1298.91 478.993 1297.55 479.173 1296.27 478.83C1294.99 478.486 1293.9 477.648 1293.23 476.5C1292.57 475.352 1292.39 473.987 1292.73 472.706C1293.08 471.425 1293.91 470.333 1295.06 469.67C1301.12 466.17 1307.86 473.83 1307.86 473.83ZM1307.86 473.83L1315.65 469.33C1316.8 468.667 1317.64 467.575 1317.98 466.294C1318.32 465.013 1318.14 463.648 1317.48 462.5C1316.82 461.352 1315.73 460.514 1314.44 460.17C1313.16 459.827 1311.8 460.007 1310.65 460.67C1304.59 464.17 1307.86 473.83 1307.86 473.83ZM1326.71 609.49L1316.71 626.811L1289 610.811L1299 593.49M1302.86 618.811L1317.86 592.83M1317.86 592.83L1310.06 588.33C1308.91 587.667 1308.08 586.575 1307.73 585.294C1307.39 584.013 1307.57 582.648 1308.23 581.5C1308.9 580.352 1309.99 579.514 1311.27 579.17C1312.55 578.827 1313.91 579.007 1315.06 579.67C1321.12 583.17 1317.86 592.83 1317.86 592.83ZM1317.86 592.83L1325.65 597.33C1326.8 597.993 1328.16 598.173 1329.44 597.83C1330.73 597.486 1331.82 596.648 1332.48 595.5C1333.14 594.352 1333.32 592.987 1332.98 591.706C1332.64 590.425 1331.8 589.333 1330.65 588.67C1324.59 585.17 1317.86 592.83 1317.86 592.83ZM1326.71 712.49L1336.71 729.811L1309 745.811L1299 728.49M1322.86 737.811L1307.86 711.83M1307.86 711.83L1300.06 716.33C1298.91 716.993 1297.55 717.173 1296.27 716.83C1294.99 716.486 1293.9 715.648 1293.23 714.5C1292.57 713.352 1292.39 711.987 1292.73 710.706C1293.08 709.425 1293.91 708.333 1295.06 707.67C1301.12 704.17 1307.86 711.83 1307.86 711.83ZM1307.86 711.83L1315.65 707.33C1316.8 706.667 1317.64 705.575 1317.98 704.294C1318.32 703.013 1318.14 701.648 1317.48 700.5C1316.82 699.352 1315.73 698.514 1314.44 698.17C1313.16 697.827 1311.8 698.007 1310.65 698.67C1304.59 702.17 1307.86 711.83 1307.86 711.83ZM1326.71 847.49L1316.71 864.811L1289 848.811L1299 831.49M1302.86 856.811L1317.86 830.83M1317.86 830.83L1310.06 826.33C1308.91 825.667 1308.08 824.575 1307.73 823.294C1307.39 822.013 1307.57 820.648 1308.23 819.5C1308.9 818.352 1309.99 817.514 1311.27 817.17C1312.55 816.827 1313.91 817.007 1315.06 817.67C1321.12 821.17 1317.86 830.83 1317.86 830.83ZM1317.86 830.83L1325.65 835.33C1326.8 835.993 1328.16 836.173 1329.44 835.83C1330.73 835.486 1331.82 834.648 1332.48 833.5C1333.14 832.352 1333.32 830.987 1332.98 829.706C1332.64 828.425 1331.8 827.333 1330.65 826.67C1324.59 823.17 1317.86 830.83 1317.86 830.83ZM1326.71 950.49L1336.71 967.811L1309 983.811L1299 966.49M1322.86 975.811L1307.86 949.83M1307.86 949.83L1300.06 954.33C1298.91 954.993 1297.55 955.173 1296.27 954.83C1294.99 954.486 1293.9 953.648 1293.23 952.5C1292.57 951.352 1292.39 949.987 1292.73 948.706C1293.08 947.425 1293.91 946.333 1295.06 945.67C1301.12 942.17 1307.86 949.83 1307.86 949.83ZM1307.86 949.83L1315.65 945.33C1316.8 944.667 1317.64 943.575 1317.98 942.294C1318.32 941.013 1318.14 939.648 1317.48 938.5C1316.82 937.352 1315.73 936.514 1314.44 936.17C1313.16 935.827 1311.8 936.007 1310.65 936.67C1304.59 940.17 1307.86 949.83 1307.86 949.83ZM1326.71 -1.50961L1336.71 15.8109L1309 31.8109L1299 14.4904M1322.86 23.8109L1307.86 -2.16986M1307.86 -2.16986L1300.06 2.33014C1298.91 2.99318 1297.55 3.17286 1296.27 2.82964C1294.99 2.48643 1293.9 1.64843 1293.23 0.500013C1292.57 -0.648408 1292.39 -2.01319 1292.73 -3.29408C1293.08 -4.57498 1293.91 -5.66707 1295.06 -6.33011C1301.12 -9.83011 1307.86 -2.16986 1307.86 -2.16986ZM1307.86 -2.16986L1315.65 -6.66986C1316.8 -7.3329 1317.64 -8.42499 1317.98 -9.70589C1318.32 -10.9868 1318.14 -12.3516 1317.48 -13.5C1316.82 -14.6484 1315.73 -15.4864 1314.44 -15.8296C1313.16 -16.1728 1311.8 -15.9932 1310.65 -15.3301C1304.59 -11.8301 1307.86 -2.16986 1307.86 -2.16986ZM38.7128 133.49L28.7128 150.811L1 134.811L11 117.49M14.8564 142.811L29.8564 116.83M29.8564 116.83L22.0622 112.33C20.9138 111.667 20.0758 110.575 19.7325 109.294C19.3893 108.013 19.569 106.648 20.232 105.5C20.8951 104.352 21.9872 103.514 23.2681 103.17C24.549 102.827 25.9138 103.007 27.0622 103.67C33.1244 107.17 29.8564 116.83 29.8564 116.83ZM29.8564 116.83L37.6506 121.33C38.7991 121.993 40.1638 122.173 41.4447 121.83C42.7256 121.486 43.8177 120.648 44.4808 119.5C45.1438 118.352 45.3235 116.987 44.9803 115.706C44.637 114.425 43.7991 113.333 42.6506 112.67C36.5885 109.17 29.8564 116.83 29.8564 116.83ZM38.7128 236.49L48.7128 253.811L21 269.811L11 252.49M34.8564 261.811L19.8564 235.83M19.8564 235.83L12.0622 240.33C10.9138 240.993 9.54898 241.173 8.26808 240.83C6.98719 240.486 5.89509 239.648 5.23205 238.5C4.56901 237.352 4.38933 235.987 4.73255 234.706C5.07576 233.425 5.91376 232.333 7.06218 231.67C13.1244 228.17 19.8564 235.83 19.8564 235.83ZM19.8564 235.83L27.6506 231.33C28.7991 230.667 29.637 229.575 29.9803 228.294C30.3235 227.013 30.1438 225.648 29.4808 224.5C28.8177 223.352 27.7256 222.514 26.4447 222.17C25.1638 221.827 23.7991 222.007 22.6506 222.67C16.5885 226.17 19.8564 235.83 19.8564 235.83ZM38.7128 371.49L28.7128 388.811L1 372.811L11 355.49M14.8564 380.811L29.8564 354.83M29.8564 354.83L22.0622 350.33C20.9138 349.667 20.0758 348.575 19.7325 347.294C19.3893 346.013 19.569 344.648 20.232 343.5C20.8951 342.352 21.9872 341.514 23.2681 341.17C24.549 340.827 25.9138 341.007 27.0622 341.67C33.1244 345.17 29.8564 354.83 29.8564 354.83ZM29.8564 354.83L37.6506 359.33C38.7991 359.993 40.1638 360.173 41.4447 359.83C42.7256 359.486 43.8177 358.648 44.4808 357.5C45.1438 356.352 45.3235 354.987 44.9803 353.706C44.637 352.425 43.7991 351.333 42.6506 350.67C36.5885 347.17 29.8564 354.83 29.8564 354.83ZM38.7128 474.49L48.7128 491.811L21 507.811L11 490.49M34.8564 499.811L19.8564 473.83M19.8564 473.83L12.0622 478.33C10.9138 478.993 9.54898 479.173 8.26808 478.83C6.98719 478.486 5.89509 477.648 5.23205 476.5C4.56901 475.352 4.38933 473.987 4.73255 472.706C5.07576 471.425 5.91376 470.333 7.06218 469.67C13.1244 466.17 19.8564 473.83 19.8564 473.83ZM19.8564 473.83L27.6506 469.33C28.7991 468.667 29.637 467.575 29.9803 466.294C30.3235 465.013 30.1438 463.648 29.4808 462.5C28.8177 461.352 27.7256 460.514 26.4447 460.17C25.1638 459.827 23.7991 460.007 22.6506 460.67C16.5885 464.17 19.8564 473.83 19.8564 473.83ZM38.7128 609.49L28.7128 626.811L1 610.811L11 593.49M14.8564 618.811L29.8564 592.83M29.8564 592.83L22.0622 588.33C20.9138 587.667 20.0758 586.575 19.7325 585.294C19.3893 584.013 19.569 582.648 20.232 581.5C20.8951 580.352 21.9872 579.514 23.2681 579.17C24.549 578.827 25.9138 579.007 27.0622 579.67C33.1244 583.17 29.8564 592.83 29.8564 592.83ZM29.8564 592.83L37.6506 597.33C38.7991 597.993 40.1638 598.173 41.4447 597.83C42.7256 597.486 43.8177 596.648 44.4808 595.5C45.1438 594.352 45.3235 592.987 44.9803 591.706C44.637 590.425 43.7991 589.333 42.6506 588.67C36.5885 585.17 29.8564 592.83 29.8564 592.83ZM38.7128 712.49L48.7128 729.811L21 745.811L11 728.49M34.8564 737.811L19.8564 711.83M19.8564 711.83L12.0622 716.33C10.9138 716.993 9.54898 717.173 8.26808 716.83C6.98719 716.486 5.89509 715.648 5.23205 714.5C4.56901 713.352 4.38933 711.987 4.73255 710.706C5.07576 709.425 5.91376 708.333 7.06218 707.67C13.1244 704.17 19.8564 711.83 19.8564 711.83ZM19.8564 711.83L27.6506 707.33C28.7991 706.667 29.637 705.575 29.9803 704.294C30.3235 703.013 30.1438 701.648 29.4808 700.5C28.8177 699.352 27.7256 698.514 26.4447 698.17C25.1638 697.827 23.7991 698.007 22.6506 698.67C16.5885 702.17 19.8564 711.83 19.8564 711.83ZM38.7128 847.49L28.7128 864.811L1 848.811L11 831.49M14.8564 856.811L29.8564 830.83M29.8564 830.83L22.0622 826.33C20.9138 825.667 20.0758 824.575 19.7325 823.294C19.3893 822.013 19.569 820.648 20.232 819.5C20.8951 818.352 21.9872 817.514 23.2681 817.17C24.549 816.827 25.9138 817.007 27.0622 817.67C33.1244 821.17 29.8564 830.83 29.8564 830.83ZM29.8564 830.83L37.6506 835.33C38.7991 835.993 40.1638 836.173 41.4447 835.83C42.7256 835.486 43.8177 834.648 44.4808 833.5C45.1438 832.352 45.3235 830.987 44.9803 829.706C44.637 828.425 43.7991 827.333 42.6506 826.67C36.5885 823.17 29.8564 830.83 29.8564 830.83ZM38.7128 950.49L48.7128 967.811L21 983.811L11 966.49M34.8564 975.811L19.8564 949.83M19.8564 949.83L12.0622 954.33C10.9138 954.993 9.54898 955.173 8.26808 954.83C6.98719 954.486 5.89509 953.648 5.23205 952.5C4.56901 951.352 4.38933 949.987 4.73255 948.706C5.07576 947.425 5.91376 946.333 7.06218 945.67C13.1244 942.17 19.8564 949.83 19.8564 949.83ZM19.8564 949.83L27.6506 945.33C28.7991 944.667 29.637 943.575 29.9803 942.294C30.3235 941.013 30.1438 939.648 29.4808 938.5C28.8177 937.352 27.7256 936.514 26.4447 936.17C25.1638 935.827 23.7991 936.007 22.6506 936.67C16.5885 940.17 19.8564 949.83 19.8564 949.83ZM38.7128 -1.50961L48.7128 15.8109L21 31.8109L11 14.4904M34.8564 23.8109L19.8564 -2.16986M19.8564 -2.16986L12.0622 2.33014C10.9138 2.99318 9.54898 3.17286 8.26808 2.82964C6.98719 2.48643 5.89509 1.64843 5.23205 0.500013C4.56901 -0.648408 4.38933 -2.01319 4.73255 -3.29408C5.07576 -4.57498 5.91376 -5.66707 7.06218 -6.33011C13.1244 -9.83011 19.8564 -2.16986 19.8564 -2.16986ZM19.8564 -2.16986L27.6506 -6.66986C28.7991 -7.3329 29.637 -8.42499 29.9803 -9.70589C30.3235 -10.9868 30.1438 -12.3516 29.4808 -13.5C28.8177 -14.6484 27.7256 -15.4864 26.4447 -15.8296C25.1638 -16.1728 23.7991 -15.9932 22.6506 -15.3301C16.5885 -11.8301 19.8564 -2.16986 19.8564 -2.16986ZM173.536 162.83L208.177 182.83L203.177 191.49L168.536 171.49L173.536 162.83ZM163.536 301.83L198.177 281.83L203.177 290.49L168.536 310.49L163.536 301.83ZM173.536 400.83L208.177 420.83L203.177 429.49L168.536 409.49L173.536 400.83ZM163.536 539.83L198.177 519.83L203.177 528.49L168.536 548.49L163.536 539.83ZM173.536 638.83L208.177 658.83L203.177 667.49L168.536 647.49L173.536 638.83ZM163.536 777.83L198.177 757.83L203.177 766.49L168.536 786.49L163.536 777.83ZM173.536 876.83L208.177 896.83L203.177 905.49L168.536 885.49L173.536 876.83ZM163.536 1015.83L198.177 995.83L203.177 1004.49L168.536 1024.49L163.536 1015.83ZM163.536 63.8301L198.177 43.8301L203.177 52.4904L168.536 72.4904L163.536 63.8301ZM334.536 106.83L369.177 126.83L364.177 135.49L329.536 115.49L334.536 106.83ZM324.536 245.83L359.177 225.83L364.177 234.49L329.536 254.49L324.536 245.83ZM334.536 344.83L369.177 364.83L364.177 373.49L329.536 353.49L334.536 344.83ZM324.536 483.83L359.177 463.83L364.177 472.49L329.536 492.49L324.536 483.83ZM334.536 582.83L369.177 602.83L364.177 611.49L329.536 591.49L334.536 582.83ZM324.536 721.83L359.177 701.83L364.177 710.49L329.536 730.49L324.536 721.83ZM334.536 820.83L369.177 840.83L364.177 849.49L329.536 829.49L334.536 820.83ZM324.536 959.83L359.177 939.83L364.177 948.49L329.536 968.49L324.536 959.83ZM324.536 7.83014L359.177 -12.1699L364.177 -3.50961L329.536 16.4904L324.536 7.83014ZM495.536 162.83L530.177 182.83L525.177 191.49L490.536 171.49L495.536 162.83ZM485.536 301.83L520.177 281.83L525.177 290.49L490.536 310.49L485.536 301.83ZM495.536 400.83L530.177 420.83L525.177 429.49L490.536 409.49L495.536 400.83ZM485.536 539.83L520.177 519.83L525.177 528.49L490.536 548.49L485.536 539.83ZM495.536 638.83L530.177 658.83L525.177 667.49L490.536 647.49L495.536 638.83ZM485.536 777.83L520.177 757.83L525.177 766.49L490.536 786.49L485.536 777.83ZM495.536 876.83L530.177 896.83L525.177 905.49L490.536 885.49L495.536 876.83ZM485.536 1015.83L520.177 995.83L525.177 1004.49L490.536 1024.49L485.536 1015.83ZM485.536 63.8301L520.177 43.8301L525.177 52.4904L490.536 72.4904L485.536 63.8301ZM656.536 106.83L691.177 126.83L686.177 135.49L651.536 115.49L656.536 106.83ZM646.536 245.83L681.177 225.83L686.177 234.49L651.536 254.49L646.536 245.83ZM656.536 344.83L691.177 364.83L686.177 373.49L651.536 353.49L656.536 344.83ZM646.536 483.83L681.177 463.83L686.177 472.49L651.536 492.49L646.536 483.83ZM656.536 582.83L691.177 602.83L686.177 611.49L651.536 591.49L656.536 582.83ZM646.536 721.83L681.177 701.83L686.177 710.49L651.536 730.49L646.536 721.83ZM656.536 820.83L691.177 840.83L686.177 849.49L651.536 829.49L656.536 820.83ZM646.536 959.83L681.177 939.83L686.177 948.49L651.536 968.49L646.536 959.83ZM646.536 7.83014L681.177 -12.1699L686.177 -3.50961L651.536 16.4904L646.536 7.83014ZM817.536 162.83L852.177 182.83L847.177 191.49L812.536 171.49L817.536 162.83ZM807.536 301.83L842.177 281.83L847.177 290.49L812.536 310.49L807.536 301.83ZM817.536 400.83L852.177 420.83L847.177 429.49L812.536 409.49L817.536 400.83ZM807.536 539.83L842.177 519.83L847.177 528.49L812.536 548.49L807.536 539.83ZM817.536 638.83L852.177 658.83L847.177 667.49L812.536 647.49L817.536 638.83ZM807.536 777.83L842.177 757.83L847.177 766.49L812.536 786.49L807.536 777.83ZM817.536 876.83L852.177 896.83L847.177 905.49L812.536 885.49L817.536 876.83ZM807.536 1015.83L842.177 995.83L847.177 1004.49L812.536 1024.49L807.536 1015.83ZM807.536 63.8301L842.177 43.8301L847.177 52.4904L812.536 72.4904L807.536 63.8301ZM978.536 106.83L1013.18 126.83L1008.18 135.49L973.536 115.49L978.536 106.83ZM968.536 245.83L1003.18 225.83L1008.18 234.49L973.536 254.49L968.536 245.83ZM978.536 344.83L1013.18 364.83L1008.18 373.49L973.536 353.49L978.536 344.83ZM968.536 483.83L1003.18 463.83L1008.18 472.49L973.536 492.49L968.536 483.83ZM978.536 582.83L1013.18 602.83L1008.18 611.49L973.536 591.49L978.536 582.83ZM968.536 721.83L1003.18 701.83L1008.18 710.49L973.536 730.49L968.536 721.83ZM978.536 820.83L1013.18 840.83L1008.18 849.49L973.536 829.49L978.536 820.83ZM968.536 959.83L1003.18 939.83L1008.18 948.49L973.536 968.49L968.536 959.83ZM968.536 7.83014L1003.18 -12.1699L1008.18 -3.50961L973.536 16.4904L968.536 7.83014ZM1139.54 162.83L1174.18 182.83L1169.18 191.49L1134.54 171.49L1139.54 162.83ZM1129.54 301.83L1164.18 281.83L1169.18 290.49L1134.54 310.49L1129.54 301.83ZM1139.54 400.83L1174.18 420.83L1169.18 429.49L1134.54 409.49L1139.54 400.83ZM1129.54 539.83L1164.18 519.83L1169.18 528.49L1134.54 548.49L1129.54 539.83ZM1139.54 638.83L1174.18 658.83L1169.18 667.49L1134.54 647.49L1139.54 638.83ZM1129.54 777.83L1164.18 757.83L1169.18 766.49L1134.54 786.49L1129.54 777.83ZM1139.54 876.83L1174.18 896.83L1169.18 905.49L1134.54 885.49L1139.54 876.83ZM1129.54 1015.83L1164.18 995.83L1169.18 1004.49L1134.54 1024.49L1129.54 1015.83ZM1129.54 63.8301L1164.18 43.8301L1169.18 52.4904L1134.54 72.4904L1129.54 63.8301ZM1300.54 106.83L1335.18 126.83L1330.18 135.49L1295.54 115.49L1300.54 106.83ZM1290.54 245.83L1325.18 225.83L1330.18 234.49L1295.54 254.49L1290.54 245.83ZM1300.54 344.83L1335.18 364.83L1330.18 373.49L1295.54 353.49L1300.54 344.83ZM1290.54 483.83L1325.18 463.83L1330.18 472.49L1295.54 492.49L1290.54 483.83ZM1300.54 582.83L1335.18 602.83L1330.18 611.49L1295.54 591.49L1300.54 582.83ZM1290.54 721.83L1325.18 701.83L1330.18 710.49L1295.54 730.49L1290.54 721.83ZM1300.54 820.83L1335.18 840.83L1330.18 849.49L1295.54 829.49L1300.54 820.83ZM1290.54 959.83L1325.18 939.83L1330.18 948.49L1295.54 968.49L1290.54 959.83ZM1290.54 7.83014L1325.18 -12.1699L1330.18 -3.50961L1295.54 16.4904L1290.54 7.83014ZM12.5359 106.83L47.1769 126.83L42.1769 135.49L7.5359 115.49L12.5359 106.83ZM2.5359 245.83L37.1769 225.83L42.1769 234.49L7.5359 254.49L2.5359 245.83ZM12.5359 344.83L47.1769 364.83L42.1769 373.49L7.5359 353.49L12.5359 344.83ZM2.5359 483.83L37.1769 463.83L42.1769 472.49L7.5359 492.49L2.5359 483.83ZM12.5359 582.83L47.1769 602.83L42.1769 611.49L7.5359 591.49L12.5359 582.83ZM2.5359 721.83L37.1769 701.83L42.1769 710.49L7.5359 730.49L2.5359 721.83ZM12.5359 820.83L47.1769 840.83L42.1769 849.49L7.5359 829.49L12.5359 820.83ZM2.5359 959.83L37.1769 939.83L42.1769 948.49L7.5359 968.49L2.5359 959.83ZM2.5359 7.83014L37.1769 -12.1699L42.1769 -3.50961L7.5359 16.4904L2.5359 7.83014Z" stroke="url(#paint0_linear_7_276)" stroke-width="2" stroke-linecap="round" stroke-linejoin="round"/>
<defs>
<linearGradient id="paint0_linear_7_276" x1="647.75" y1="105" x2="647.75" y2="850" gradientUnits="userSpaceOnUse">
<stop stop-color="#7C7C7C"/>
<stop offset="0.25" stop-color="#535353" stop-opacity="0"/>
<stop offset="0.75" stop-color="#535353" stop-opacity="0"/>
<stop offset="1" stop-color="#7C7C7C"/>
</linearGradient>
</defs>
</svg>
